# xmcd CD database file
#
# Track frame offsets:
#	150
#	16500
#	27585
#	45122
#
# Disc length: 746 seconds
#
# Revision: 2
# Processed by: cddbd v1.5.1PL2 Copyright (c) Steve Scherf et al.
# Submitted via: CDex 1.51
#
DISCID=1d02e804
DTITLE=杉村智子(通信制課程)・宮崎信哉(定時制課程) - 博多青松高校校歌
DYEAR=1998
DGENRE=Rock
TTITLE0=校歌
TTITLE1=讃歌 -虹のかけ橋-
TTITLE2=m9(^Д^)プギャー!
TTITLE3=（　＾ω＾）おもすれー
EXTD=YEAR: 1998
EXTT0=
EXTT1=
EXTT2=
EXTT3=
PLAYORDER=
